<?xml version="1.0" encoding="utf-8" ?>
<?xml-stylesheet href="picography.css" type="text/css" title="base devotees css" alternate="no" media="screen"?>
<?xml-stylesheet href="personal.css" type="text/css" title="user custom css" alternate="no" media="screen"?>
<svg baseProfile="full" height="100%" preserveAspectRatio="xMidYMid meet" version="1.1" viewBox="0,0,1150,1575" width="100%" xmlns="http://www.w3.org/2000/svg" xmlns:ev="http://www.w3.org/2001/xml-events" xmlns:xlink="http://www.w3.org/1999/xlink"><defs><pattern height="20" id="pattern1" patternUnits="userSpaceOnUse" width="20"><rect height="20" width="20" x="0" y="0" /><line x1="0" x2="20" y1="20" y2="0" /></pattern><pattern height="8" id="pattern2" patternUnits="userSpaceOnUse" width="8"><rect height="8" width="8" x="0" y="0" /><circle cx="4" cy="4" r="1" /></pattern><pattern height="20" id="pattern3" patternUnits="userSpaceOnUse" width="20"><rect height="20" width="20" x="0" y="0" /><line x1="0" x2="20" y1="20" y2="0" /><line x1="0" x2="20" y1="0" y2="20" /></pattern><pattern height="20" id="pattern4" patternUnits="userSpaceOnUse" width="20"><rect height="20" width="20" x="0" y="0" /><line x1="10" x2="10" y1="0" y2="20" /></pattern><pattern height="20" id="pattern5" patternUnits="userSpaceOnUse" width="20"><rect height="20" width="20" x="0" y="0" /><line x1="0" x2="20" y1="20" y2="20" /></pattern></defs><line stroke="grey" x1="0" x2="50" y1="1538" y2="1538" /><g class="yeartick"><text x="3" y="1536">1988</text></g><line stroke="grey" x1="0" x2="50" y1="1489" y2="1489" /><g class="yeartick"><text x="3" y="1487">1989</text></g><line stroke="grey" x1="0" x2="50" y1="1440" y2="1440" /><g class="yeartick"><text x="3" y="1438">1990</text></g><line stroke="grey" x1="0" x2="50" y1="1392" y2="1392" /><g class="yeartick"><text x="3" y="1390">1991</text></g><line stroke="grey" x1="0" x2="50" y1="1343" y2="1343" /><g class="yeartick"><text x="3" y="1341">1992</text></g><line stroke="grey" x1="0" x2="50" y1="1294" y2="1294" /><g class="yeartick"><text x="3" y="1292">1993</text></g><line stroke="grey" x1="0" x2="50" y1="1246" y2="1246" /><g class="yeartick"><text x="3" y="1244">1994</text></g><line stroke="grey" x1="0" x2="50" y1="1197" y2="1197" /><g class="yeartick"><text x="3" y="1195">1995</text></g><line stroke="grey" x1="0" x2="50" y1="1149" y2="1149" /><g class="yeartick"><text x="3" y="1147">1996</text></g><line stroke="grey" x1="0" x2="50" y1="1100" y2="1100" /><g class="yeartick"><text x="3" y="1098">1997</text></g><line stroke="grey" x1="0" x2="50" y1="1051" y2="1051" /><g class="yeartick"><text x="3" y="1049">1998</text></g><line stroke="grey" x1="0" x2="50" y1="1003" y2="1003" /><g class="yeartick"><text x="3" y="1001">1999</text></g><line stroke="grey" x1="0" x2="50" y1="954" y2="954" /><g class="yeartick"><text x="3" y="952">2000</text></g><line stroke="grey" x1="0" x2="50" y1="905" y2="905" /><g class="yeartick"><text x="3" y="903">2001</text></g><line stroke="grey" x1="0" x2="50" y1="857" y2="857" /><g class="yeartick"><text x="3" y="855">2002</text></g><line stroke="grey" x1="0" x2="50" y1="808" y2="808" /><g class="yeartick"><text x="3" y="806">2003</text></g><line stroke="grey" x1="0" x2="50" y1="760" y2="760" /><g class="yeartick"><text x="3" y="758">2004</text></g><line stroke="grey" x1="0" x2="50" y1="711" y2="711" /><g class="yeartick"><text x="3" y="709">2005</text></g><line stroke="grey" x1="0" x2="50" y1="662" y2="662" /><g class="yeartick"><text x="3" y="660">2006</text></g><line stroke="grey" x1="0" x2="50" y1="614" y2="614" /><g class="yeartick"><text x="3" y="612">2007</text></g><line stroke="grey" x1="0" x2="50" y1="565" y2="565" /><g class="yeartick"><text x="3" y="563">2008</text></g><line stroke="grey" x1="0" x2="50" y1="517" y2="517" /><g class="yeartick"><text x="3" y="515">2009</text></g><line stroke="grey" x1="0" x2="50" y1="468" y2="468" /><g class="yeartick"><text x="3" y="466">2010</text></g><line stroke="grey" x1="0" x2="50" y1="419" y2="419" /><g class="yeartick"><text x="3" y="417">2011</text></g><line stroke="grey" x1="0" x2="50" y1="371" y2="371" /><g class="yeartick"><text x="3" y="369">2012</text></g><line stroke="grey" x1="0" x2="50" y1="322" y2="322" /><g class="yeartick"><text x="3" y="320">2013</text></g><line stroke="grey" x1="0" x2="50" y1="274" y2="274" /><g class="yeartick"><text x="3" y="272">2014</text></g><line stroke="grey" x1="0" x2="50" y1="225" y2="225" /><g class="yeartick"><text x="3" y="223">2015</text></g><line stroke="grey" x1="0" x2="50" y1="176" y2="176" /><g class="yeartick"><text x="3" y="174">2016</text></g><line stroke="grey" x1="0" x2="50" y1="128" y2="128" /><g class="yeartick"><text x="3" y="126">2017</text></g><g class="age"><polygon class="rectangle" points="1002,1525 1037,1525 1037,1476 1002,1476" /></g><g class="age"><polygon class="rectangle" points="1002,1476 1037,1476 1037,1427 1002,1427" /><g class="age middle"><text x="1020" y="1457">1</text></g></g><g class="age"><polygon class="rectangle" points="1002,1427 1037,1427 1037,1379 1002,1379" /><g class="age middle"><text x="1020" y="1408">2</text></g></g><g class="age"><polygon class="rectangle" points="1002,1379 1037,1379 1037,1330 1002,1330" /><g class="age middle"><text x="1020" y="1359">3</text></g></g><g class="age"><polygon class="rectangle" points="1002,1330 1037,1330 1037,1281 1002,1281" /><g class="age middle"><text x="1020" y="1311">4</text></g></g><g class="age"><polygon class="rectangle" points="1002,1281 1037,1281 1037,1233 1002,1233" /><g class="age middle"><text x="1020" y="1262">5</text></g></g><g class="age"><polygon class="rectangle" points="1002,1233 1037,1233 1037,1184 1002,1184" /><g class="age middle"><text x="1020" y="1214">6</text></g></g><g class="age"><polygon class="rectangle" points="1002,1184 1037,1184 1037,1136 1002,1136" /><g class="age middle"><text x="1020" y="1165">7</text></g></g><g class="age"><polygon class="rectangle" points="1002,1136 1037,1136 1037,1087 1002,1087" /><g class="age middle"><text x="1020" y="1116">8</text></g></g><g class="age"><polygon class="rectangle" points="1002,1087 1037,1087 1037,1038 1002,1038" /><g class="age middle"><text x="1020" y="1068">9</text></g></g><g class="age"><polygon class="rectangle" points="1002,1038 1037,1038 1037,990 1002,990" /><g class="age middle"><text x="1020" y="1019">10</text></g></g><g class="age"><polygon class="rectangle" points="1002,990 1037,990 1037,941 1002,941" /><g class="age middle"><text x="1020" y="971">11</text></g></g><g class="age"><polygon class="rectangle" points="1002,941 1037,941 1037,893 1002,893" /><g class="age middle"><text x="1020" y="922">12</text></g></g><g class="age"><polygon class="rectangle" points="1002,893 1037,893 1037,844 1002,844" /><g class="age middle"><text x="1020" y="873">13</text></g></g><g class="age"><polygon class="rectangle" points="1002,844 1037,844 1037,795 1002,795" /><g class="age middle"><text x="1020" y="825">14</text></g></g><g class="age"><polygon class="rectangle" points="1002,795 1037,795 1037,747 1002,747" /><g class="age middle"><text x="1020" y="776">15</text></g></g><g class="age"><polygon class="rectangle" points="1002,747 1037,747 1037,698 1002,698" /><g class="age middle"><text x="1020" y="727">16</text></g></g><g class="age"><polygon class="rectangle" points="1002,698 1037,698 1037,650 1002,650" /><g class="age middle"><text x="1020" y="679">17</text></g></g><g class="age"><polygon class="rectangle" points="1002,650 1037,650 1037,601 1002,601" /><g class="age middle"><text x="1020" y="630">18</text></g></g><g class="age"><polygon class="rectangle" points="1002,601 1037,601 1037,552 1002,552" /><g class="age middle"><text x="1020" y="582">19</text></g></g><g class="age"><polygon class="rectangle" points="1002,552 1037,552 1037,504 1002,504" /><g class="age middle"><text x="1020" y="533">20</text></g></g><g class="age"><polygon class="rectangle" points="1002,504 1037,504 1037,455 1002,455" /><g class="age middle"><text x="1020" y="484">21</text></g></g><g class="age"><polygon class="rectangle" points="1002,455 1037,455 1037,407 1002,407" /><g class="age middle"><text x="1020" y="436">22</text></g></g><g class="age"><polygon class="rectangle" points="1002,407 1037,407 1037,358 1002,358" /><g class="age middle"><text x="1020" y="387">23</text></g></g><g class="age"><polygon class="rectangle" points="1002,358 1037,358 1037,309 1002,309" /><g class="age middle"><text x="1020" y="339">24</text></g></g><g class="age"><polygon class="rectangle" points="1002,309 1037,309 1037,261 1002,261" /><g class="age middle"><text x="1020" y="290">25</text></g></g><g class="age"><polygon class="rectangle" points="1002,261 1037,261 1037,212 1002,212" /><g class="age middle"><text x="1020" y="241">26</text></g></g><g class="age"><polygon class="rectangle" points="1002,212 1037,212 1037,163 1002,163" /><g class="age middle"><text x="1020" y="193">27</text></g></g><g class="age"><polygon class="rectangle" points="1002,163 1037,163 1037,115 1002,115" /><g class="age middle"><text x="1020" y="144">28</text></g></g><g class="axis_label"><text x="328" y="80">weekday</text></g><g class="axis_label"><text x="328" y="96">mornings</text></g><g class="axis_label"><text x="493" y="80">weekday</text></g><g class="axis_label"><text x="493" y="96">afternoons</text></g><g class="axis_label"><text x="673" y="80">weekday</text></g><g class="axis_label"><text x="673" y="96">evenings</text></g><line stroke="grey" x1="300" x2="299" y1="105" y2="50" /><line stroke="grey" x1="450" x2="449" y1="105" y2="70" /><line stroke="grey" x1="630" x2="629" y1="105" y2="70" /><g class="axis_label"><text x="859" y="88">weekends</text></g><line stroke="grey" x1="810" x2="810" y1="105" y2="50" /><line stroke="grey" x1="1001" x2="1001" y1="105" y2="50" /><g class="axis_label"><text x="53" y="88">residences</text></g><g class="axis_label"><text x="233" y="88">flatmates</text></g><line stroke="grey" x1="300" x2="300" y1="105" y2="50" /><polygon class="legend rectangle" points="25,55 128,55 128,10 25,10" /><polygon class="scale rectangle" points="45,48 73,48 73,27 45,27" /><g><text x="33" y="21">5 hours/week</text></g><g><text x="79" y="42">20 weeks</text></g><g><text x="51" y="37">100</text></g><g><text x="47" y="46">hours</text></g><g class="axis_label"><text x="1040" y="88">events</text></g><line stroke="grey" x1="1052" x2="1052" y1="100" y2="1525" /><g><text x="1025" y="15">Generated on 2017-08-01</text></g><polygon class="gray1 residence rectangle" points="50,1525 1002,1525 1002,730 50,730" /><g><text x="53" y="1523">Bainbridge Island, WA</text></g><polygon class="gray2 residence rectangle" points="50,729 1002,729 1002,689 50,689" /><g><text x="53" y="728">Kathmandu, Nepal</text></g><polygon class="gray1 residence rectangle" points="50,689 1002,689 1002,628 50,628" /><polygon class="gray3 residence rectangle" points="50,628 1002,628 1002,547 50,547" /><g><text x="53" y="626">Eugene, OR</text></g><polygon class="gray4 residence rectangle" points="50,532 1002,532 1002,498 50,498" /><g><text x="53" y="530">Elmira, OR</text></g><polygon class="gray5 residence rectangle" points="50,497 1002,497 1002,484 50,484" /><g><text x="53" y="495">Goldendale, WA</text></g><polygon class="gray3 residence rectangle" points="50,483 1002,483 1002,449 50,449" /><polygon class="gray6 residence rectangle" points="50,438 1002,438 1002,166 50,166" /><g><text x="53" y="436">Portland, ME</text></g><polygon class="gray7 residence rectangle" points="50,164 1002,164 1002,100 50,100" /><g><text x="53" y="163">Brooklyn, NY</text></g><polygon class="friend1 rectangle" points="285,729 297,729 297,689 285,689" /><g class="friend1 vert middle"><text x="291" y="714">Chip</text></g><polygon class="friend2 rectangle" points="285,579 297,579 297,547 285,547" /><g class="friend2 vert middle"><text x="291" y="568">Mara and Darcy</text></g><polygon class="friend1 rectangle" points="285,436 297,436 297,399 285,399" /><g class="friend1 vert middle"><text x="291" y="423">Alison (and Sonny and Will)</text></g><polygon class="friend1 rectangle" points="285,399 297,399 297,338 285,338" /><g class="friend1 vert middle"><text x="291" y="374">Chris and Megan</text></g><polygon class="friend3 rectangle" points="285,338 297,338 297,290 285,290" /><g class="friend3 vert middle"><text x="291" y="319">Sarah</text></g><polygon class="friend2 rectangle" points="285,290 297,290 297,100 285,100" /><g class="friend2 vert middle"><text x="291" y="200">Johnicholas</text></g></svg>